# xmcd CD database file generated by Grip 3.0.7
# 
# Track frame offsets:
#       150
#       19450
#       37515
#       55885
#       77565
#       93687
#       104185
#       122392
#       143497
#       159382
# 
# Disc length: 2417 seconds
# 
# Revision: 2
# Processed by: cddbd v1.5.1PL0 Copyright (c) Steve Scherf et al.
# Submitted via: Grip 3.0.7
# 
DISCID=77096f0a
DTITLE=Tanya Tucker - TNT
DYEAR=1978
DGENRE=Country
TTITLE0=Lover Goodbye
TTITLE1=I'm The Singer, You're The Song
TTITLE2=Not Fade Away
TTITLE3=Angel From Montgomery
TTITLE4=Heartbreak Hotel
TTITLE5=Brown Eyed Handsome Man
TTITLE6=The River And The Wind
TTITLE7=If You Feel It
TTITLE8=It's Nice To Be With You
TTITLE9=Texas (When I Die)
EXTD=
EXTT0=
EXTT1=
EXTT2=
EXTT3=
EXTT4=
EXTT5=
EXTT6=
EXTT7=
EXTT8=
EXTT9=
PLAYORDER=
